<svg version="1.2" xmlns="http://www.w3.org/2000/svg" viewBox="0 0 400 400" width="40" height="40">
	<title>New Project</title>
	
	<path id="jb." class="s0" aria-label="jb." d="m30.3 400.1q-8.6-0.1-16.5-1.3-7.8-1.3-13.1-3l0.1-31.3q5.6 1.7 11 2.5 5.3 0.9 12.1 0.9 10.8 0 17.9-6 7.1-5.9 7.2-22.8l0.6-205.4 39.2 0.1-0.7 209q0 16.8-6.1 29.8-5.8 12.9-18.7 20.2-12.7 7.3-33 7.3zm17.1-315.5q0.1-11.9 6.4-16.7 6.5-4.8 15.9-4.8 9 0.1 15.4 4.9 6.7 4.9 6.7 16.7-0.1 11.7-6.8 16.6-6.5 4.9-15.5 4.8-9.3 0-15.8-4.8-6.3-5.1-6.3-16.7zm97.6-25.4l39.1 0.1-0.2 62.5q0 10.8-0.7 21.3-0.5 10.4-1 16.2h1.6q7.6-12 20.9-20.1 13.5-8.3 34.5-8.2 32.8 0.1 52.8 24.3 19.9 24 19.7 71.2-0.1 31.3-9.3 52.6-9.2 21.3-25.9 32.2-16.5 10.8-38.9 10.8-21-0.1-33.9-7.8-12.8-7.9-20.1-18.2h-2.9l-7.2 22.4-29.3-0.1zm83.8 103.6q-16.7-0.1-26.5 6.6-9.7 6.6-14.1 19.9-4.3 13.2-4.6 33.5v3.5q-0.1 30.8 9.5 47.2 9.8 16.3 35.6 16.4 20.5 0.1 31.6-16.4 11-16.6 11.1-47.6 0.1-31.3-10.8-47.2-10.8-15.8-31.8-15.9zm122.2 135.6q0-13.6 7.1-19.1 7.1-5.6 17.3-5.6 10.2 0 17.3 5.7 7.3 5.5 7.3 19.2-0.1 13.3-7.4 19.3-7.2 5.8-17.3 5.8-10.2-0.1-17.4-5.9-6.9-6-6.9-19.4z" />
</svg>